<svg id="Layer_2" xmlns="http://www.w3.org/2000/svg" viewBox="0 0 351.61 50.81"><defs><style>.icon-1{fill:none;stroke:#f5f5f5;stroke-miterlimit:20;}</style></defs><g id="Layer_1-2"><g><path class="icon-1" d="m277.77,1.89h12.84v46.77h-12.84V1.89Z"></path><polygon class="icon-1" points="253.44 1.89 253.44 30.58 232.58 1.89 220.13 1.89 220.13 48.66 232.58 48.66 232.58 19.97 253.44 48.66 265.9 48.66 265.9 1.89 253.44 1.89"></polygon><polygon class="icon-1" points="30.84 23.77 46.04 48.66 60.77 48.66 30.86 1.64 30.84 1.66 30.82 1.64 .91 48.66 15.64 48.66 30.84 23.77"></polygon><path class="icon-1" d="m83.62,13.25h22.21V1.89h-22.21c-12.91,0-23.38,10.47-23.38,23.38s10.47,23.38,23.38,23.38h22.21v-11.36h-22.21c-6.64,0-12.02-5.38-12.02-12.02s5.38-12.02,12.02-12.02Z"></path><path class="icon-1" d="m133.7,13.25h22.21V1.89h-22.21c-12.91,0-23.38,10.47-23.38,23.38s10.47,23.38,23.38,23.38h22.21v-11.36h-22.21c-6.64,0-12.02-5.38-12.02-12.02s5.38-12.02,12.02-12.02Z"></path><path class="icon-1" d="m175.25,25.62V1.89h-11.36v23.74c0,12.92,10.47,23.39,23.39,23.39s23.38-10.47,23.38-23.39V1.89h-11.36v23.74h0c0,6.64-5.38,12.03-12.02,12.03s-12.03-5.38-12.03-12.03Z"></path><g><polygon class="icon-1" points="350.91 41.48 343.68 50.1 324.17 32.91 331.41 24.29 350.91 41.48"></polygon><path class="icon-1" d="m324.32.5c-13.69,0-24.8,11.1-24.8,24.8s11.1,24.8,24.8,24.8,24.8-11.1,24.8-24.8S338.01.5,324.32.5Zm0,38.17c-7.39,0-13.37-5.99-13.37-13.37s5.98-13.38,13.37-13.38,13.38,5.99,13.38,13.38-5.99,13.37-13.38,13.37Z"></path></g></g></g></svg>