<?xml version="1.0" encoding="utf-8"?>
<!-- Generator: Adobe Illustrator 16.0.0, SVG Export Plug-In . SVG Version: 6.00 Build 0)  -->
<!DOCTYPE svg PUBLIC "-//W3C//DTD SVG 1.1//EN" "http://www.w3.org/Graphics/SVG/1.1/DTD/svg11.dtd">
<svg version="1.1" id="Layer_1" xmlns="http://www.w3.org/2000/svg" xmlns:xlink="http://www.w3.org/1999/xlink" x="0px" y="0px"
	 width="13.484px" height="13.484px" viewBox="1.258 0.786 13.484 13.484" enable-background="new 1.258 0.786 13.484 13.484"
	 xml:space="preserve">
<path fill="none" stroke="#88A3D2" stroke-width="0.7" stroke-miterlimit="10" d="M6.802,13.421l-0.005,0.004L6.67,13.521
	l-0.427,0.32c-0.12,0.089-0.282,0.104-0.419,0.037c-0.138-0.068-0.22-0.205-0.22-0.357v-0.532v-0.159v-0.008v-0.1v-1.199H4.405
	H3.207c-0.881,0-1.598-0.716-1.598-1.598V2.734c0-0.881,0.717-1.598,1.598-1.598h9.588c0.882,0,1.598,0.717,1.598,1.598v7.191
	c0,0.882-0.716,1.598-1.598,1.598H9.332L6.802,13.421z"/>
<path fill="#9DB3DB" d="M8.001,2.9c-1.747,0-3.163,1.416-3.163,3.162V6.67c0,0.203-0.162,0.365-0.365,0.365
	c-0.202,0-0.365-0.162-0.365-0.365V6.062c0-2.15,1.742-3.892,3.892-3.892c2.149,0,3.891,1.742,3.891,3.892v2.19
	c0,0.74-0.599,1.338-1.339,1.338l-1.209,0.729c-0.125,0.217-0.361,0.363-0.632,0.363H8.226c-0.403,0-0.729-0.326-0.729-0.729
	s0.327-0.73,0.729-0.73h0.486c0.271,0,0.507,0.147,0.632,0.365l1.211-0.728c0.336,0,0.607-0.273,0.607-0.609v-2.19
	C11.162,4.315,9.747,2.9,8.001,2.9z"/>
<path fill="#9DB3DB" d="M4.298,5.333h0.243c0.269,0,0.487,0.217,0.487,0.486v1.703c0,0.27-0.218,0.486-0.487,0.486H4.298
	c-0.537,0-0.973-0.436-0.973-0.973v-0.73C3.325,5.769,3.761,5.333,4.298,5.333z"/>
<path fill="#9DB3DB" d="M11.703,5.333c0.536,0,0.973,0.436,0.973,0.973v0.73c0,0.537-0.437,0.973-0.973,0.973H11.46
	c-0.269,0-0.486-0.217-0.486-0.486V5.819c0-0.269,0.218-0.486,0.486-0.486H11.703z"/>
</svg>
