<svg id="Layer_2" xmlns="http://www.w3.org/2000/svg" viewBox="0 0 350 49.6"><defs><style>.cls-1{fill:#005baa;}</style></defs><g id="Layer_1-2"><g><path class="cls-1" d="m276.86,1.39h12.84v46.77h-12.84V1.39Z"></path><polygon class="cls-1" points="252.53 1.39 252.53 30.08 231.67 1.39 219.22 1.39 219.22 48.16 231.67 48.16 231.67 19.47 252.53 48.16 264.99 48.16 264.99 1.39 252.53 1.39"></polygon><polygon class="cls-1" points="29.93 23.27 45.13 48.16 59.86 48.16 29.95 1.14 29.93 1.16 29.91 1.14 0 48.16 14.73 48.16 29.93 23.27"></polygon><path class="cls-1" d="m82.71,12.75h22.21V1.39h-22.21c-12.91,0-23.38,10.47-23.38,23.38s10.47,23.38,23.38,23.38h22.21v-11.36h-22.21c-6.64,0-12.02-5.38-12.02-12.02s5.38-12.02,12.02-12.02Z"></path><path class="cls-1" d="m132.79,12.75h22.21V1.39h-22.21c-12.91,0-23.38,10.47-23.38,23.38s10.47,23.38,23.38,23.38h22.21v-11.36h-22.21c-6.64,0-12.02-5.38-12.02-12.02s5.38-12.02,12.02-12.02Z"></path><path class="cls-1" d="m174.34,25.12V1.39h-11.36v23.74c0,12.92,10.47,23.39,23.39,23.39s23.38-10.47,23.38-23.39V1.39h-11.36v23.74h0c0,6.64-5.38,12.03-12.02,12.03s-12.03-5.38-12.03-12.03Z"></path><g><polygon class="cls-1" points="350 40.98 342.76 49.6 323.26 32.41 330.5 23.79 350 40.98"></polygon><path class="cls-1" d="m323.41,0c-13.69,0-24.8,11.1-24.8,24.8s11.1,24.8,24.8,24.8,24.8-11.1,24.8-24.8S337.1,0,323.41,0Zm0,38.17c-7.39,0-13.37-5.99-13.37-13.37s5.98-13.38,13.37-13.38,13.38,5.99,13.38,13.38-5.99,13.37-13.38,13.37Z"></path></g></g></g></svg>