<svg id="Layer_2" xmlns="http://www.w3.org/2000/svg" xmlns:xlink="http://www.w3.org/1999/xlink" viewBox="0 0 122.5 95.28"><defs><style>.cls-1{fill:#004282;}.cls-2{fill:url(#linear-gradient);}</style><linearGradient id="linear-gradient" x1="26.86" y1="19.44" x2="86.63" y2="113.74" gradientUnits="userSpaceOnUse"><stop offset="0" stop-color="#00aeef"></stop><stop offset="1" stop-color="#004282"></stop></linearGradient></defs><g id="Layer_1-2"><g><path class="cls-2" d="m58.78,24.16c24.63,22.78,53.59,58.13,57.15,71.12h0c-.08-11.48-8.59-32.55-20.72-53.01h0C83.01,21.86,68.95,4.93,59.44.47h0c-.81-.35-1.8-.5-3.03-.47h0c-1.3.05-2.47.28-3.33.69h0c-9.85,4.96-23.51,21.9-34.92,42.06h0C6.86,62.94-.64,83.55.04,94.72H.04s1.83-7.88,26.33-23.61h0c12.38-7.84,28.74-16.02,44.99-20.67h0c16.29-4.57,30.54-5.02,40.37-.93h0c17.36,8.24,4.2,45.77,4.2,45.78h0s4.97-10.24,6.23-22.83h0c1.19-12.63-.4-25.63-9.95-33.72h0c-11.89-9.48-31.89-9.22-50.7-3.61h0c-18.8,5.76-32.22,14.73-32.28,14.76h0c7.73-9.33,15.79-18.16,23.62-25.86h0c.82-.8,1.81-1.29,2.93-1.29h0c1.16,0,2.17.53,3.01,1.42Z"></path><path class="cls-1" d="m68.35,33.39c4.67,4.67,9.21,9.46,13.8,14.53h0c5.66-1,10.76-1.41,15.6-1.24h0c-3.09-5.44-6.26-10.59-9.65-15.62h0c-6.41-.09-13.01.75-19.75,2.32Z"></path></g></g></svg>